<?xml version="1.0" encoding="UTF-8"?>
<svg version="1.1" xmlns="http://www.w3.org/2000/svg" width="440" height="440">
<path d="M0 0 C0.86286621 0.20898926 1.72573242 0.41797852 2.61474609 0.63330078 C26.28180525 6.60260438 48.00799731 17.73769293 67 33 C67.82516113 33.66273926 67.82516113 33.66273926 68.66699219 34.33886719 C92.17946489 53.3955075 109.36433958 77.08938047 121 105 C121 105.66 121 106.32 121 107 C121.763125 107.268125 122.52625 107.53625 123.3125 107.8125 C125.99891015 108.99951844 127.21059853 109.72490384 129 112 C129.44140625 114.375 129.44140625 114.375 129.5625 117 C129.74365804 120.68903651 129.87460058 121.81190086 132 125 C132.21118164 126.91015625 132.21118164 126.91015625 132.16015625 129.0625 C132.14919922 129.86042969 132.13824219 130.65835938 132.12695312 131.48046875 C132.10568359 132.31191406 132.08441406 133.14335937 132.0625 134 C131.95189535 139.08781369 131.95461712 144.06225473 132.48046875 149.12890625 C137.28756761 197.38624935 124.84552404 244.23107962 94 282 C91.11514232 285.45693963 88.11594364 288.75080877 85 292 C84.55140625 292.48500977 84.1028125 292.97001953 83.640625 293.46972656 C70.57470643 307.58056739 55.05447009 318.23722901 38 327 C37.33178223 327.34901367 36.66356445 327.69802734 35.97509766 328.05761719 C-5.66551541 349.58731229 -54.1541207 350.7519009 -98.41308594 337.26464844 C-123.62966779 329.02534282 -145.94122443 314.23733152 -165 296 C-165.93972656 295.113125 -166.87945312 294.22625 -167.84765625 293.3125 C-178.40423867 283.0974104 -186.72884684 271.75237686 -194 259 C-194.36480469 258.36610352 -194.72960937 257.73220703 -195.10546875 257.07910156 C-210.14223113 230.68778738 -217.45712111 201.45838131 -217.375 171.125 C-217.37445618 170.36364746 -217.37391235 169.60229492 -217.37335205 168.81787109 C-217.22186569 122.40729881 -198.70223703 78.89243136 -166 46 C-165.5148291 45.51080078 -165.0296582 45.02160156 -164.52978516 44.51757812 C-141.24766831 21.36342635 -111.71028371 6.66041924 -80 -1 C-79.28070313 -1.17934082 -78.56140625 -1.35868164 -77.8203125 -1.54345703 C-53.42937593 -7.33630447 -24.15730167 -5.87829176 0 0 Z " fill="#3C988F" transform="translate(262,49)"/>
<path d="M0 0 C1.4296875 1.22265625 1.4296875 1.22265625 2.875 3.0625 C6.38811519 7.32518072 10.08994209 11.35547837 13.875 15.375 C18.57674534 20.38929088 23.22887093 25.43962045 27.8125 30.5625 C30.25570181 33.28492488 32.71831161 35.98861966 35.1875 38.6875 C35.63714111 39.17911621 36.08678223 39.67073242 36.55004883 40.17724609 C39.22279553 43.09069304 41.91940988 45.97961004 44.63671875 48.8515625 C45.25716064 49.50938721 45.87760254 50.16721191 46.5168457 50.8449707 C47.72137045 52.1203964 48.92933848 53.39258246 50.14135742 54.66088867 C50.70056885 55.25361572 51.25978027 55.84634277 51.8359375 56.45703125 C52.32626465 56.97241455 52.8165918 57.48779785 53.32177734 58.01879883 C55.73309528 60.8654449 57.83159605 63.96423447 60 67 C44.82 67 29.64 67 14 67 C14 129.37 14 191.74 14 256 C32.81 256 51.62 256 71 256 C71 222.01 71 188.02 71 153 C76.63038549 158.63038549 76.63038549 158.63038549 78.98046875 161.53125 C79.75898193 162.4895874 79.75898193 162.4895874 80.55322266 163.46728516 C81.09253418 164.13808105 81.6318457 164.80887695 82.1875 165.5 C83.04287354 166.55840088 83.04287354 166.55840088 83.91552734 167.63818359 C88.20412284 172.96381981 92.39456067 178.35781696 96.54296875 183.79296875 C99.1440258 187.19854123 101.78691993 190.57039565 104.4375 193.9375 C104.89527832 194.51902832 105.35305664 195.10055664 105.82470703 195.69970703 C106.75259621 196.8779014 107.68065654 198.05596099 108.60888672 199.23388672 C110.90874245 202.15371058 113.20410522 205.07706142 115.5 208 C115.95439453 208.57814453 116.40878906 209.15628906 116.87695312 209.75195312 C119.15832249 212.65463159 121.43814165 215.55850275 123.71484375 218.46484375 C128.51020859 224.58321626 133.32990616 230.68087771 138.1875 236.75 C138.68789795 237.37600098 139.1882959 238.00200195 139.70385742 238.64697266 C141.96723533 241.47535482 144.23775641 244.29681667 146.53515625 247.09765625 C147.26605469 247.99355469 147.99695313 248.88945312 148.75 249.8125 C149.38421875 250.58207031 150.0184375 251.35164062 150.671875 252.14453125 C152 254 152 254 152 256 C170.48 256 188.96 256 208 256 C208 243.46 208 230.92 208 218 C205.36 218 202.72 218 200 218 C183.43431498 214.35683512 168.37663116 204.08792867 159 190 C156.83370712 185.53451283 156.83370712 185.53451283 157.875 182.1875 C158.24625 181.465625 158.6175 180.74375 159 180 C161.68231841 182.48362815 163.66079509 185.25825857 165.75 188.25 C174.98742227 200.93895009 187.18810033 209.45909252 202.796875 212.5546875 C218.74875433 214.7723878 234.29504666 212.04924818 247.87109375 203.109375 C259.53902265 194.0875974 269.84015299 180.9839386 272 166 C273.02684704 153.60652674 273.30643335 138.10672412 266.23828125 127.30859375 C265.82964844 126.54675781 265.42101562 125.78492188 265 125 C266.13525846 122.01830029 267.79113376 119.93423559 269.9765625 117.64453125 C270.56131348 117.02594238 271.14606445 116.40735352 271.74853516 115.77001953 C272.36776855 115.12403809 272.98700195 114.47805664 273.625 113.8125 C274.8969031 112.47367173 276.16774148 111.13383114 277.4375 109.79296875 C278.35789062 108.82109619 278.35789062 108.82109619 279.296875 107.82958984 C282.09182773 104.82709906 284.73648487 101.69845493 287.3515625 98.5390625 C289.23842454 96.77739509 290.51971821 96.52797762 293 96 C298.48558477 144.22849589 288.17311478 191.84431493 257.8671875 230.45703125 C254.09593043 235.1568081 250.17123739 239.65038733 246 244 C245.55140625 244.48500977 245.1028125 244.97001953 244.640625 245.46972656 C231.57470643 259.58056739 216.05447009 270.23722901 199 279 C198.33178223 279.34901367 197.66356445 279.69802734 196.97509766 280.05761719 C155.33448459 301.58731229 106.8458793 302.7519009 62.58691406 289.26464844 C37.37033221 281.02534282 15.05877557 266.23733152 -4 248 C-5.40958984 246.6696875 -5.40958984 246.6696875 -6.84765625 245.3125 C-17.40423867 235.0974104 -25.72884684 223.75237686 -33 211 C-33.36480469 210.36610352 -33.72960937 209.73220703 -34.10546875 209.07910156 C-49.14223113 182.68778738 -56.45712111 153.45838131 -56.375 123.125 C-56.37445618 122.36364746 -56.37391235 121.60229492 -56.37335205 120.81787109 C-56.24032506 80.06265801 -42.07593119 43.54402066 -17.21801758 11.58447266 C-16.21569745 10.28059259 -15.25254862 8.94669496 -14.30078125 7.60546875 C-12.53887228 5.43086038 -10.5817118 5.00749729 -8 4 C-7.319375 3.29875 -6.63875 2.5975 -5.9375 1.875 C-4 0 -4 0 0 0 Z " fill="#153D69" transform="translate(101,97)"/>
<path d="M0 0 C3.93380035 1.50153328 5.41527501 3.68176855 7.65234375 7.1796875 C8.33949463 8.24324463 9.02664551 9.30680176 9.73461914 10.40258789 C10.46906836 11.55995987 11.20335815 12.71743303 11.9375 13.875 C12.70277038 15.06626809 13.46897486 16.25693661 14.23608398 17.44702148 C15.77880936 19.84281692 17.31672013 22.24158968 18.85058594 24.64306641 C21.22147113 28.34589141 23.61970902 32.0299434 26.02539062 35.71020508 C32.23276236 45.20957399 38.34661521 54.76891419 44.44555664 64.33813477 C47.86814528 69.70136197 51.33063759 75.02051004 54.95336914 80.2512207 C56 82 56 82 56 84 C48.34409815 82.52240282 41.2432297 80.07301905 33.9375 77.375 C32.78572266 76.95476562 31.63394531 76.53453125 30.44726562 76.1015625 C27.62963206 75.07271705 24.81398816 74.03876545 22 73 C21.94360682 88.99512206 21.93314263 104.98952276 21.97665405 120.98465538 C21.99580044 128.41232556 22.00018274 135.83944548 21.96923828 143.26708984 C21.94229007 149.74464911 21.94362427 156.22149536 21.97825909 162.69902861 C21.99561225 166.12593358 21.99925162 169.55156247 21.96896362 172.978405 C21.94218983 176.81404149 21.9654055 180.646426 22 184.48193359 C21.98058853 185.60547241 21.96117706 186.72901123 21.94117737 187.88659668 C22.07987882 195.43994338 24.00778459 199.36649812 29.12036133 204.92910194 C32.28998534 208.42124557 33.4808879 212.45947704 34.96484375 216.86328125 C41.25853205 234.55765744 52.0270433 246.14605647 68.8828125 254.4140625 C76.21719462 257.68868219 81.54350242 258.59058374 90 260 C90 272.54 90 285.08 90 298 C82.25183691 298.39266941 74.53856181 298.72974541 66.78833008 298.93383789 C64.1598585 299.01889804 61.5321813 299.13460245 58.90649414 299.2824707 C37.71650445 300.44516427 37.71650445 300.44516427 31.59475708 296.4175415 C27.54052632 292.50999654 24.75949818 287.97036567 22.12210083 283.0295105 C20.69621181 280.4505473 18.95499353 278.29322429 17.01953125 276.078125 C16.48110596 275.43270752 15.94268066 274.78729004 15.38793945 274.12231445 C14.60809692 273.1955188 14.60809692 273.1955188 13.8125 272.25 C8.87859246 266.32014495 4.09381825 260.30952594 -0.578125 254.171875 C-3.16900608 250.77865656 -5.79629441 247.41656656 -8.4375 244.0625 C-8.89535889 243.48089111 -9.35321777 242.89928223 -9.82495117 242.30004883 C-10.75274827 241.12192742 -11.68072727 239.94394924 -12.60888672 238.76611328 C-15.36707206 235.26440869 -18.11925354 231.75798348 -20.87255859 228.25244141 C-23.17477671 225.321676 -25.47844008 222.39207061 -27.78515625 219.46484375 C-28.25050781 218.87380859 -28.71585937 218.28277344 -29.1953125 217.67382812 C-30.46436915 216.06212618 -31.73410912 214.45096235 -33.00390625 212.83984375 C-37.36571846 207.24967243 -41.67683592 201.6201133 -46 196 C-46.33 229.66 -46.66 263.32 -47 298 C-65.48 298 -83.96 298 -103 298 C-103 235.96 -103 173.92 -103 110 C-84.19 110 -65.38 110 -46 110 C-37.15140701 120.89057599 -28.41341405 131.7821146 -20 143 C-19.67 119.9 -19.34 96.8 -19 73 C-33.355 77.95 -33.355 77.95 -48 83 C-50.97 83.99 -50.97 83.99 -54 85 C-52.6527176 81.34973351 -51.00891235 78.22472003 -48.90234375 74.95703125 C-48.27481201 73.97959961 -47.64728027 73.00216797 -47.00073242 71.99511719 C-46.31986572 70.94485352 -45.63899902 69.89458984 -44.9375 68.8125 C-44.22505127 67.70680664 -43.51260254 66.60111328 -42.77856445 65.46191406 C-35.30424557 53.87102163 -27.74736435 42.33362995 -20.18188477 30.80212402 C-18.02087236 27.50703767 -15.86209716 24.21048585 -13.703125 20.9140625 C-9.13658326 13.94194346 -4.56870649 6.97070072 0 0 Z " fill="#FDFDFD" transform="translate(219,55)"/>
<path d="M0 0 C5.875 3.875 5.875 3.875 7 5 C7.28393978 7.51489516 7.4481124 10.02989582 7.62109375 12.5546875 C7.8632494 15.25068778 7.8632494 15.25068778 10 18 C10.33439136 21.12479023 10.09048306 24.24002409 9.9375 27.375 C9.92267578 28.22578125 9.90785156 29.0765625 9.89257812 29.953125 C9.70092426 34.12403277 9.52331011 36.34226161 6.87109375 39.67578125 C5.92363281 40.44277344 4.97617187 41.20976562 4 42 C2.88710554 43.07826957 1.78623127 44.16903337 0.6953125 45.26953125 C0.11475098 45.84493652 -0.46581055 46.4203418 -1.06396484 47.01318359 C-6.587962 52.50143636 -12.03522939 57.99001452 -17 64 C-16.5978125 64.9590625 -16.5978125 64.9590625 -16.1875 65.9375 C-15.24601655 68.36553626 -14.34905276 70.78903997 -13.5 73.25 C-13.2628125 73.93578125 -13.025625 74.6215625 -12.78125 75.328125 C-9.00709637 88.23573041 -7.16018692 104.46219343 -13 117 C-13.45246094 118.00933594 -13.90492188 119.01867187 -14.37109375 120.05859375 C-22.47922544 136.56651655 -34.74665725 146.56217398 -51.859375 153.0546875 C-66.62802003 157.49997618 -83.02932884 155.75999622 -96.6875 148.875 C-109.10563802 141.73831104 -119.88364036 131.31692857 -124.2109375 117.4453125 C-124.92730752 115.00866191 -124.92730752 115.00866191 -126.0625 112.8984375 C-130.8320477 103.2401034 -128.51662639 86.94119637 -126 77 C-120.06011184 60.67616118 -109.28008283 48.83011913 -93.625 41.25 C-78.96217863 34.99248609 -64.24716401 34.35098448 -49 39 C-45.14176796 40.55355655 -41.53100589 42.47012001 -37.890625 44.4765625 C-34.599328 46.43293732 -34.599328 46.43293732 -31 47 C-28.84104415 45.24908376 -27.06576986 43.58063473 -25.1875 41.5625 C-24.65125 41.00554443 -24.115 40.44858887 -23.5625 39.87475586 C-20.24916646 36.40949434 -17.03523518 32.86440134 -13.92578125 29.21484375 C-11.24142104 26.12755727 -8.46490799 23.1285238 -5.6875 20.125 C-5.15898437 19.55273682 -4.63046875 18.98047363 -4.0859375 18.39086914 C-2.08552037 16.22988881 -0.08244751 14.08244751 2 12 C1.79856185 9.08431852 1.79856185 9.08431852 1.125 5.875 C0.81949219 4.23144531 0.81949219 4.23144531 0.5078125 2.5546875 C0.34023438 1.71164063 0.17265625 0.86859375 0 0 Z " fill="#D4D5D4" transform="translate(384,156)"/>
<path d="M0 0 C3.93380035 1.50153328 5.41527501 3.68176855 7.65234375 7.1796875 C8.33949463 8.24324463 9.02664551 9.30680176 9.73461914 10.40258789 C10.46906836 11.55995987 11.20335815 12.71743303 11.9375 13.875 C12.70277038 15.06626809 13.46897486 16.25693661 14.23608398 17.44702148 C15.77880936 19.84281692 17.31672013 22.24158968 18.85058594 24.64306641 C21.22147113 28.34589141 23.61970902 32.0299434 26.02539062 35.71020508 C32.23276236 45.20957399 38.34661521 54.76891419 44.44555664 64.33813477 C47.86814528 69.70136197 51.33063759 75.02051004 54.95336914 80.2512207 C56 82 56 82 56 84 C44.37194063 81.41598681 33.20758012 77.03472884 22 73 C22 113.59 22 154.18 22 196 C18.42399091 192.42399091 15.05660758 188.85704685 11.8125 185 C11.33401611 184.43240967 10.85553223 183.86481934 10.36254883 183.2800293 C5.90087074 177.94824669 1.66849209 172.4489836 -2.53710938 166.91455078 C-5.52196735 163.00813286 -8.54444888 159.13078887 -11.5625 155.25 C-12.18294189 154.45053955 -12.80338379 153.6510791 -13.44262695 152.82739258 C-14.01972412 152.08513428 -14.59682129 151.34287598 -15.19140625 150.578125 C-15.70904541 149.91200195 -16.22668457 149.24587891 -16.76000977 148.55957031 C-17.91187655 147.05031775 -17.91187655 147.05031775 -19 146 C-19.09439978 143.73008113 -19.11742226 141.45718033 -19.11352539 139.18530273 C-19.11367142 138.47314606 -19.11381744 137.76098938 -19.1139679 137.0272522 C-19.1132687 134.66266888 -19.10547606 132.29816339 -19.09765625 129.93359375 C-19.09579209 128.29834537 -19.09436818 126.66309643 -19.09336853 125.02784729 C-19.08954318 120.71565215 -19.07971275 116.40349048 -19.06866455 112.09130859 C-19.0584508 107.69434054 -19.05387099 103.29736711 -19.04882812 98.90039062 C-19.03809049 90.26691169 -19.02101387 81.63346 -19 73 C-19.8470752 73.29245605 -20.69415039 73.58491211 -21.56689453 73.88623047 C-24.73135831 74.97860527 -27.89591997 76.07069558 -31.06054688 77.16259766 C-32.42614569 77.63383906 -33.79170621 78.10519145 -35.15722656 78.57666016 C-37.12815276 79.25713321 -39.09921961 79.93719748 -41.0703125 80.6171875 C-42.25383301 81.02565918 -43.43735352 81.43413086 -44.65673828 81.85498047 C-47.76587867 82.91981678 -50.88057555 83.96573011 -54 85 C-52.6527176 81.34973351 -51.00891235 78.22472003 -48.90234375 74.95703125 C-48.27481201 73.97959961 -47.64728027 73.00216797 -47.00073242 71.99511719 C-46.31986572 70.94485352 -45.63899902 69.89458984 -44.9375 68.8125 C-44.22505127 67.70680664 -43.51260254 66.60111328 -42.77856445 65.46191406 C-35.30424557 53.87102163 -27.74736435 42.33362995 -20.18188477 30.80212402 C-18.02087236 27.50703767 -15.86209716 24.21048585 -13.703125 20.9140625 C-9.13658326 13.94194346 -4.56870649 6.97070072 0 0 Z " fill="#DCDEDD" transform="translate(219,55)"/>
<path d="M0 0 C5.48558477 48.22849589 -4.82688522 95.84431493 -35.1328125 134.45703125 C-42.75446752 143.95521109 -51.34086181 152.4613135 -60 161 C-60.99 160.67 -61.98 160.34 -63 160 C-63 159.01 -63 158.02 -63 157 C-63.55945313 156.76667969 -64.11890625 156.53335938 -64.6953125 156.29296875 C-67.58000522 154.67460724 -69.55691869 152.67029922 -71.875 150.3125 C-72.69742188 149.48363281 -73.51984375 148.65476562 -74.3671875 147.80078125 C-77.34902607 144.62870669 -80.16674567 141.30546339 -83 138 C-83.33 145.26 -83.66 152.52 -84 160 C-84.33 160 -84.66 160 -85 160 C-85 147.46 -85 134.92 -85 122 C-87.64 122 -90.28 122 -93 122 C-109.56568502 118.35683512 -124.62336884 108.08792867 -134 94 C-136.16629288 89.53451283 -136.16629288 89.53451283 -135.125 86.1875 C-134.568125 85.1046875 -134.568125 85.1046875 -134 84 C-131.31768159 86.48362815 -129.33920491 89.25825857 -127.25 92.25 C-118.01257773 104.93895009 -105.81189967 113.45909252 -90.203125 116.5546875 C-74.25124567 118.7723878 -58.70495334 116.04924818 -45.12890625 107.109375 C-33.46097735 98.0875974 -23.15984701 84.9839386 -21 70 C-19.97315296 57.60652674 -19.69356665 42.10672412 -26.76171875 31.30859375 C-27.17035156 30.54675781 -27.57898438 29.78492188 -28 29 C-26.86474154 26.01830029 -25.20886624 23.93423559 -23.0234375 21.64453125 C-22.43852539 21.02594238 -21.85361328 20.40735352 -21.25097656 19.77001953 C-20.6319043 19.12403809 -20.01283203 18.47805664 -19.375 17.8125 C-18.10586845 16.47351098 -16.83763535 15.13366979 -15.5703125 13.79296875 C-14.95704102 13.14505371 -14.34376953 12.49713867 -13.71191406 11.82958984 C-10.87926798 8.80222964 -8.15866151 5.67983749 -5.453125 2.5390625 C-3.64815797 0.62735011 -2.6470953 0 0 0 Z " fill="#347370" transform="translate(394,193)"/>
<path d="M0 0 C5.875 3.875 5.875 3.875 7 5 C7.28393978 7.51489516 7.4481124 10.02989582 7.62109375 12.5546875 C7.8632494 15.25068778 7.8632494 15.25068778 10 18 C10.33439136 21.12479023 10.09048306 24.24002409 9.9375 27.375 C9.92267578 28.22578125 9.90785156 29.0765625 9.89257812 29.953125 C9.70092426 34.12403277 9.52331011 36.34226161 6.87109375 39.67578125 C5.92363281 40.44277344 4.97617187 41.20976562 4 42 C2.88710554 43.07826957 1.78623127 44.16903337 0.6953125 45.26953125 C0.11563721 45.84396973 -0.46403809 46.4184082 -1.0612793 47.01025391 C-5.95515278 51.87316601 -10.79311906 56.72195311 -15.265625 61.98046875 C-22.61501702 70.53820675 -30.49236065 78.65849733 -38.23388672 86.85888672 C-42.41735706 91.29728884 -46.53419628 95.7840779 -50.58984375 100.33984375 C-54.50112492 104.65683318 -58.50662047 108.88589945 -62.51000977 113.11743164 C-66.2772428 117.11240672 -69.94317004 121.1759347 -73.53271484 125.33154297 C-76.71614031 128.95143143 -76.71614031 128.95143143 -79.74389648 129.46948242 C-84.13511139 128.83633357 -86.17425943 126.58508725 -89.09765625 123.48828125 C-89.93277992 122.64042305 -89.93277992 122.64042305 -90.78477478 121.7754364 C-92.55863164 119.96808443 -94.31052996 118.141051 -96.0625 116.3125 C-97.24403926 115.10084339 -98.42696896 113.89054101 -99.61132812 112.68164062 C-101.79659984 110.44749083 -103.97333325 108.20570184 -106.14086914 105.9543457 C-110.87978617 101.0359276 -110.87978617 101.0359276 -115.8359375 96.33984375 C-117.375 94.9375 -117.375 94.9375 -120 92 C-119.33779361 85.36520132 -111.79461912 81.02084774 -107 77 C-103.25259658 78.55390673 -100.93280523 80.86450381 -98.12109375 83.75390625 C-97.20005859 84.69041016 -96.27902344 85.62691406 -95.33007812 86.59179688 C-94.36529525 87.58145626 -93.40110866 88.57169727 -92.4375 89.5625 C-90.54606098 91.50712091 -88.64829013 93.44471777 -86.74609375 95.37890625 C-85.48817017 96.67163452 -85.48817017 96.67163452 -84.20483398 97.99047852 C-82.0821535 100.197797 -82.0821535 100.197797 -79 101 C-78.75636719 100.42765625 -78.51273437 99.8553125 -78.26171875 99.265625 C-76.77482702 96.59566462 -75.01916092 94.86170993 -72.8125 92.75 C-70.03582383 90.03483248 -67.33776739 87.32543996 -64.8125 84.375 C-60.63699811 79.49698476 -56.21057419 74.85369728 -51.7980957 70.19091797 C-50.91383911 69.25143311 -50.91383911 69.25143311 -50.01171875 68.29296875 C-49.48022217 67.7311792 -48.94872559 67.16938965 -48.40112305 66.59057617 C-46.7987511 64.84302434 -46.7987511 64.84302434 -45 62 C-44.34 62 -43.68 62 -43 62 C-42.74347656 61.41476563 -42.48695313 60.82953125 -42.22265625 60.2265625 C-40.89437838 57.80765392 -39.43475199 56.26801128 -37.4375 54.375 C-34.85984611 51.95478041 -34.85984611 51.95478041 -33 49 C-32.34 49 -31.68 49 -31 49 C-30.65001953 48.15695313 -30.65001953 48.15695313 -30.29296875 47.296875 C-28.68062924 44.43265858 -26.6806438 42.52747979 -24.3125 40.25 C-20.70160151 36.71121646 -17.2822549 33.12295117 -13.99609375 29.28515625 C-11.28301002 26.17917977 -8.48700758 23.15303035 -5.6875 20.125 C-4.89496826 19.26684692 -4.89496826 19.26684692 -4.08642578 18.39135742 C-2.08582718 16.23023291 -0.08260967 14.08260967 2 12 C1.79856185 9.08431852 1.79856185 9.08431852 1.125 5.875 C0.81949219 4.23144531 0.81949219 4.23144531 0.5078125 2.5546875 C0.34023438 1.71164063 0.17265625 0.86859375 0 0 Z " fill="#FBFCFB" transform="translate(384,156)"/>
<path d="M0 0 C18.48 0 36.96 0 56 0 C56 7.92 56 15.84 56 24 C52.7 24.66 49.4 25.32 46 26 C29.4095818 30.75865972 15.23090153 40.2929507 6.40234375 55.2734375 C4.27920616 59.40143204 2.5298025 63.61963382 1 68 C0.67 68 0.34 68 0 68 C0 45.56 0 23.12 0 0 Z " fill="#F9FBFA" transform="translate(253,164)"/>
<path d="M0 0 C4.57198862 11.32111468 4.65743744 23.93771462 0.26171875 35.3203125 C-5.21927227 46.96105503 -13.24323281 54.78374203 -25 60 C-34.63061402 63.35871948 -47.90161211 63.8143841 -57.57421875 60.22265625 C-69.09041357 54.41819735 -78.43100549 46.65792079 -83 34.1875 C-83.97229849 30.7442009 -84.27613339 27.58973411 -84 24 C-79.79804206 26.24977352 -76.71123591 29.10788726 -73.47265625 32.54296875 C-72.42311427 33.62752267 -71.37296566 34.71148982 -70.32226562 35.79492188 C-68.68527043 37.49394124 -67.05341802 39.1970987 -65.43188477 40.91088867 C-63.85480908 42.57270985 -62.25935581 44.21496545 -60.66015625 45.85546875 C-60.18183853 46.37102829 -59.70352081 46.88658783 -59.21070862 47.41777039 C-56.71423798 49.95141887 -55.33983447 50.95803975 -51.76318359 51.3996582 C-48.58672257 50.94022485 -47.67323062 50.35812299 -45.5625 48 C-44.96953125 47.35289062 -44.3765625 46.70578125 -43.765625 46.0390625 C-43.18296875 45.36617188 -42.6003125 44.69328125 -42 44 C-41.47921875 43.40960938 -40.9584375 42.81921875 -40.421875 42.2109375 C-39.29453296 40.92489197 -38.17257844 39.63411304 -37.0546875 38.33984375 C-31.30829818 31.79595173 -25.31170845 25.46568443 -19.359375 19.109375 C-18.447323 18.13508545 -18.447323 18.13508545 -17.5168457 17.14111328 C-16.30769086 15.84982047 -15.09790355 14.55911957 -13.88745117 13.26904297 C-10.21956382 9.34775296 -6.64947677 5.36830814 -3.234375 1.22265625 C-2 0 -2 0 0 0 Z " fill="#337876" transform="translate(356,233)"/>
<path d="M0 0 C-1.35172847 4.08379341 -3.06936242 6.37683519 -6.1875 9.3125 C-8.97190519 12.0043854 -11.67226563 14.67986588 -14.1875 17.625 C-18.33697761 22.47096204 -22.73157461 27.08676928 -27.11401367 31.72119141 C-29.92090615 34.70435843 -32.65172751 37.63073947 -35 41 C-39.25128022 40.50681204 -41.17879587 38.12337278 -44.0625 35.125 C-44.5356665 34.64047363 -45.00883301 34.15594727 -45.49633789 33.65673828 C-47.51527537 31.58885081 -49.51597539 29.50363461 -51.51855469 27.41992188 C-52.98538314 25.89883696 -54.4611294 24.38681556 -55.9375 22.875 C-56.81277344 21.96492188 -57.68804687 21.05484375 -58.58984375 20.1171875 C-60.87579812 18.10910441 -62.03157051 17.34436537 -65 17 C-58.78526176 5.10669702 -50.5607784 -2.03711459 -38.01171875 -6.74609375 C-24.99650271 -10.65335322 -10.88044698 -7.74185651 0 0 Z " fill="#37827D" transform="translate(340,216)"/>
<path d="M0 0 C2.70110459 2.50816855 4.74263947 5.31309015 6.875 8.3125 C9.77909883 12.35251941 12.74631677 16.23792877 16 20 C13.525 21.485 13.525 21.485 11 23 C7.95358148 19.70622271 4.95769404 16.37369904 2 13 C1.48566406 12.42121094 0.97132813 11.84242188 0.44140625 11.24609375 C-0.6875 9.8125 -0.6875 9.8125 -2 7 C-1.25 3.125 -1.25 3.125 0 0 Z " fill="#397B7A" transform="translate(260,277)"/>
<path d="M0 0 C3.72018917 3.11281135 7.37262722 6.26765301 10.875 9.625 C11.44992188 10.17414063 12.02484375 10.72328125 12.6171875 11.2890625 C14.15214319 13.18824496 14.59376424 14.61466693 15 17 C10.67495164 15.34136495 7.90581175 12.128959 4.75 8.875 C4.19570312 8.31167969 3.64140625 7.74835938 3.0703125 7.16796875 C1.70895515 5.78313972 0.35385141 4.39216796 -1 3 C-0.67 2.01 -0.34 1.02 0 0 Z " fill="#18355F" transform="translate(90,334)"/>
<path d="M0 0 C0.33 0.66 0.66 1.32 1 2 C-0.65999292 3.89713477 -2.32055353 5.79371947 -3.984375 7.6875 C-5.31917053 9.21889332 -6.64232759 10.76051586 -7.953125 12.3125 C-8.56671875 13.034375 -9.1803125 13.75625 -9.8125 14.5 C-10.65748047 15.50546875 -10.65748047 15.50546875 -11.51953125 16.53125 C-13 18 -13 18 -15 18 C-13.66465724 15.05886531 -12.17535119 12.89154831 -9.9609375 10.546875 C-9.38085938 9.928125 -8.80078125 9.309375 -8.203125 8.671875 C-7.59984375 8.03765625 -6.9965625 7.4034375 -6.375 6.75 C-5.76398438 6.1003125 -5.15296875 5.450625 -4.5234375 4.78125 C-3.01971926 3.18354937 -1.51184263 1.59000851 0 0 Z " fill="#42938A" transform="translate(381,204)"/>
<path d="M0 0 C1.45710076 2.32291425 2.09353244 3.46873572 1.609375 6.21875 C1.32578125 6.9715625 1.0421875 7.724375 0.75 8.5 C0.34007812 9.62921875 0.34007812 9.62921875 -0.078125 10.78125 C-2.57333333 16.78666667 -2.57333333 16.78666667 -5 18 C-4.32509334 12.73572804 -2.74580136 7.98122671 -1 3 C-0.67 2.01 -0.34 1.02 0 0 Z " fill="#437D75" transform="translate(372,265)"/>
<path d="M0 0 C5.75 1.75 5.75 1.75 8 4 C7.34 4 6.68 4 6 4 C5.67 5.32 5.34 6.64 5 8 C3.02 7.01 1.04 6.02 -1 5 C-0.67 3.35 -0.34 1.7 0 0 Z " fill="#32706F" transform="translate(282,302)"/>
<path d="M0 0 C0.66 0.33 1.32 0.66 2 1 C2 1.99 2 2.98 2 4 C-1.0455314 6.78448585 -4.32731347 9.11402583 -8 11 C-8.66 10.67 -9.32 10.34 -10 10 C-6.7 6.7 -3.4 3.4 0 0 Z " fill="#E9F4EC" transform="translate(327,232)"/>
<path d="M0 0 C0.66 0 1.32 0 2 0 C2.33 1.65 2.66 3.3 3 5 C0.6875 7.0625 0.6875 7.0625 -2 9 C-2.99 8.67 -3.98 8.34 -5 8 C-4.21718695 6.66144944 -3.42348123 5.32926356 -2.625 4 C-2.18414062 3.2575 -1.74328125 2.515 -1.2890625 1.75 C-0.86367188 1.1725 -0.43828125 0.595 0 0 Z " fill="#1D395A" transform="translate(329,350)"/>
<path d="M0 0 C0.33 1.32 0.66 2.64 1 4 C-0.3984375 6.0703125 -0.3984375 6.0703125 -2.375 8.125 C-5.01012093 10.83618016 -5.01012093 10.83618016 -7 14 C-7.66 13.67 -8.32 13.34 -9 13 C-6.03 8.71 -3.06 4.42 0 0 Z " fill="#296290" transform="translate(81,112)"/>
<path d="M0 0 C0.58265625 0.23589844 1.1653125 0.47179687 1.765625 0.71484375 C0.6209375 1.61203125 0.6209375 1.61203125 -0.546875 2.52734375 C-2.5827325 4.18443707 -4.4322029 5.81782049 -6.234375 7.71484375 C-7.224375 7.38484375 -8.214375 7.05484375 -9.234375 6.71484375 C-8.16721428 5.51278911 -7.07999163 4.32852042 -5.984375 3.15234375 C-5.38109375 2.49105469 -4.7778125 1.82976562 -4.15625 1.1484375 C-2.234375 -0.28515625 -2.234375 -0.28515625 0 0 Z " fill="#28638F" transform="translate(98.234375,95.28515625)"/>
<path d="M0 0 C0.99 0.33 1.98 0.66 3 1 C1.90220176 2.15193623 0.79650554 3.29634937 -0.3125 4.4375 C-0.92738281 5.07558594 -1.54226563 5.71367187 -2.17578125 6.37109375 C-4 8 -4 8 -7 9 C-5.44499019 5.18315774 -2.96404505 2.80804268 0 0 Z " fill="#418883" transform="translate(332,257)"/>
<path d="M0 0 C0.66 1.32 1.32 2.64 2 4 C0.71937515 5.7074998 -0.61767557 7.37373596 -2 9 C-2.66 9 -3.32 9 -4 9 C-2.94124926 5.59687262 -1.99097846 2.98646769 0 0 Z " fill="#245A88" transform="translate(71,126)"/>
<path d="M0 0 C0 3.77910478 -0.99703962 4.46106101 -3.5 7.1875 C-4.1496875 7.90292969 -4.799375 8.61835938 -5.46875 9.35546875 C-5.9740625 9.89816406 -6.479375 10.44085938 -7 11 C-7.66 10.67 -8.32 10.34 -9 10 C-6.03 6.7 -3.06 3.4 0 0 Z " fill="#36827E" transform="translate(345,243)"/>
<path d="M0 0 C0 2.64 0 5.28 0 8 C-0.33 8 -0.66 8 -1 8 C-1 6.35 -1 4.7 -1 3 C-3.475 4.485 -3.475 4.485 -6 6 C-5.6875 4.125 -5.6875 4.125 -5 2 C-2 0 -2 0 0 0 Z " fill="#5B9E99" transform="translate(394,193)"/>
<path d="M0 0 C0 3 0 3 -1.53125 4.60546875 C-2.1809375 5.12753906 -2.830625 5.64960938 -3.5 6.1875 C-4.1496875 6.71730469 -4.799375 7.24710938 -5.46875 7.79296875 C-5.9740625 8.19128906 -6.479375 8.58960938 -7 9 C-7 6 -7 6 -5.46875 4.39453125 C-4.49421875 3.61142578 -4.49421875 3.61142578 -3.5 2.8125 C-2.8503125 2.28269531 -2.200625 1.75289062 -1.53125 1.20703125 C-1.0259375 0.80871094 -0.520625 0.41039062 0 0 Z " fill="#3F8C86" transform="translate(289,216)"/>
<path d="M0 0 C0.66 0 1.32 0 2 0 C2.33 1.32 2.66 2.64 3 4 C0.33333333 4.66666667 -2.33333333 5.33333333 -5 6 C-3.38405168 3.95880212 -1.7143618 1.95927063 0 0 Z " fill="#498D8A" transform="translate(354,233)"/>
<path d="M0 0 C0.66 0.33 1.32 0.66 2 1 C0.88200014 2.33920838 -0.24461897 3.67122556 -1.375 5 C-2.00148438 5.7425 -2.62796875 6.485 -3.2734375 7.25 C-4.12808594 8.11625 -4.12808594 8.11625 -5 9 C-5.66 9 -6.32 9 -7 9 C-5.44499019 5.18315774 -2.96404505 2.80804268 0 0 Z " fill="#35887F" transform="translate(373,213)"/>
<path d="M0 0 C-1.39332574 3.36720387 -2.9789286 4.9859524 -6 7 C-5.37162381 3.35541809 -4.14650034 0 0 0 Z " fill="#4D8F8E" transform="translate(339,218)"/>
<path d="M0 0 C0 3.59857954 -0.95830515 5.09451118 -3 8 C-3.66 8 -4.32 8 -5 8 C-4.45773019 4.20411134 -2.79872437 2.52788007 0 0 Z " fill="#31857C" transform="translate(387,198)"/>
</svg>
